<?xml version='1.0' encoding='utf-8'?>
<svg xmlns="http://www.w3.org/2000/svg" version="1.1" id="Layer_1" x="0px" y="0px" viewBox="0 0 493.6 576" style="enable-background:new 0 0 493.6 576;"> <style type="text/css"> .st0{fill:#ADBF69;} .st1{fill:#ED1C24;} .st2{fill:#D95F98;} .st3{fill:#F9A01B;} .st4{fill:#0B090A;} </style> <path class="st0" d="M312.6,76.2c6.5,13.7,7.8,29.6,4.4,44.5c-0.1,0.5-0.2,0.9-0.3,1.3c3.5-11.6,6.5-26.3,7.3-39.6 c0.3-5.6,0.1-11.3-0.6-17c-1.5-8.2-4.8-19.1-8.3-25.7c-0.5-0.8-1-1.6-1.5-2.3c-2.4-1.1-11.1,23.1-10.4,23.9 C307.4,65,310.4,70.3,312.6,76.2z"/> <path class="st1" d="M174.9,45.4c-27.3,29.5-62.6,73-56.8,115.4c-1.9-42,44.3-87.7,73.5-114.1c22.3-19.4,55-43.2,84.4-27.2 c7.9,4.7,12.9,11.7,17.9,23.4c0,0,0.4-27-15.3-33.7C250.8-4.8,205.8,11.6,174.9,45.4z"/> <path class="st2" d="M470.5,389.3c-8.6-26.4-32.2-61.7-62.6-86.2c-19.2-16.1-37.7-27.9-55.7-38.1c18.2,15.2,36.5,29.5,52.9,44.9 c24.9,22.6,42,49.4,50.9,72.5c9.3,24.2,4,45.9-8.8,52.8C469.4,438.6,479.9,416.7,470.5,389.3z"/> <path class="st3" d="M179.6,89.2c11.4-15.6,24.6-30.1,38-44.9c-21.4,12.8-40.9,29.6-56.2,49.5c-9.4,12.1-17.3,25.6-22.8,39.9 c-15.1,37.7-10.9,85.1,16.7,116C128.8,194.1,143.9,136.6,179.6,89.2z"/> <path class="st1" d="M138.7,267.9c-15-19.7-34-49.7-27.5-74c1.8,14.6,13.1,39.3,27.1,49.1c-10.3-14.9-20.7-30.1-22.1-46.8 c-1.9-9.6,5.4-25.1,5.4-25.1s4.1-4-4.9,3.3C90.2,200.9,109.3,244.6,138.7,267.9z"/> <path class="st0" d="M411.6,337.1c-14-18.2-33-31.3-52.3-43.1c-22.3-13.5-46-24.8-70.2-34.5c-60.9-22.1-100.4-71.3-97.7-138.1 c-12.7,55.7,16.9,112,66.8,138.9c8.2,4.5,17,8.7,25.8,12.1c16.7,7,33.7,14.3,49.7,22.5c25.4,13,51.6,26.8,71.5,47.6 c21.7,21.6,21.6,45.6,31.2,58.3C438.7,368.6,416.2,343.3,411.6,337.1z"/> <path class="st2" d="M434.2,466.4c4-3.9,8.3-7.5,12.3-11.6c-3.1,0.8-6,2-8.9,3.1c-19.6,7.8-37.6,32.4-14.4,50.6 C412.8,491.7,422.9,477.1,434.2,466.4z"/> <path class="st1" d="M305.3,521.8c15.4-1.6,32.3,0.1,46.8-7.2c24.7-10.1,33-27.4,34.5-53c1.4-15.4,0.6-32.2-7.1-45.9 c4.2,17.3,1.6,35-3.2,51.8c-4.1,17.2-13.7,28.1-29.9,34.2c-13.5,6.7-28.5,5.1-43.1,8.5c-34.2,5.7-65.8,23.9-53.8,63.6 C247.1,537.4,272.9,524.4,305.3,521.8z"/> <path d="M274.8,100.7c-3.6,5.5-0.9,7.8-0.2,7.8c5.7-10.5,21.9-16.8,37.3-9.8c0.1-0.1-2.9-3.4-4.1-4.2 C297.6,87.4,278.4,95.2,274.8,100.7z"/> <path d="M303.8,102.3c0,0-1.1-0.7-1.1-0.7C293,94.1,276,115,276,115c0,0,1.1,3.3,3.2,3.6c0.4,0,0.7,0.7,1,1.1 c0.1,0.1,0.1,0.2,0.2,0.3c0.3-0.1,0.5-0.2,0.8-0.3c0.2,0.5,0.4,0.9,0.6,1.4c0.3-0.4,0.5-0.7,0.8-1.2c0.4,0.7,0.7,1.2,1.1,1.9 c0.1-0.9,0.3-1.5,0.4-2.4c0.3,0.6,0.6,0.9,0.9,1.4c0.1-0.4,0.2-0.6,0.4-0.9c0.9,1.2,1.7,2.2,2.4,3.2c0.1,0,0.2-0.1,0.3-0.1 c-0.4-1.3-0.7-2.5-1.1-3.8c0.1-0.1,0.2-0.1,0.3-0.2c1,1,1.9,2,2.9,3.1c0.1,0,0.1-0.1,0.2-0.1c-0.3-0.9-0.6-1.8-1-3.1 c1.8,1.1,3.4,2,5.2,3c-0.3-0.8-0.5-1.3-0.8-2c1.8,0.6,3.4,1,5,1.5c0-0.1,0.1-0.2,0.1-0.3c-1.1-0.8-2.3-1.6-3.4-2.4 c0-0.1,0.1-0.1,0.1-0.2c2.3,0.3,4.7,0.6,7,0.9c0-0.1,0-0.2,0.1-0.3c-0.9-0.3-1.8-0.7-2.8-1c2.7-0.3,5.5,0.2,8-2 c-2.1-0.2-3.9-0.4-5.7-0.5c0-0.1,0-0.2,0-0.3c2.2-0.8,4.5-1.7,6.7-2.5c-1.7-0.4-3.3-0.4-4.9-0.7c-2.6-0.5-5.1-0.3-7.5,1 c-1.4,0.8-2.8,1.7-4.3,2.4c-3.5,1.6-7.1,1.5-10.8,0.6c-1.5-0.4-3.1-0.7-4.7-1C283.4,107.9,293.6,100,303.8,102.3z"/> <path d="M242.3,119c0.2,0.5,0.4,0.9,0.6,1.3c0.3-0.5,0.6-0.8,0.9-1.3c0.3,0.2,0.5,0.3,0.7,0.5c0.1-0.1,0.2-0.1,0.3-0.2 c0.4-0.3,0.8-0.9,1.2-0.9c2.1,0.1,3.8-3,3.8-3c0,0-9.9-17.7-19.7-18.6c-0.2,0.6-0.4,1.2-0.6,1.9c8.2,2.1,15,9.8,19.5,16.4 c-1.7,0.1-3.3,0.1-4.8,0.2c-3.7,0.2-7.3-0.3-10.5-2.5c-1.3-0.9-2.5-2.1-3.8-3.1c-0.9-0.7-1.8-1.2-2.8-1.5c-0.5,2.4-0.8,4.7-1.1,7.1 c1.3,0.1,2.6,0.1,3.9,0.2c0,0.1,0,0.1,0.1,0.2c-1.3,0.6-2.5,1.2-3.8,1.8c0,0.1,0.1,0.2,0.1,0.3c1.6-0.2,3.3-0.4,5.2-0.6 c-0.4,0.6-0.7,1.1-1.2,1.8c2-0.7,3.7-1.3,5.6-2.1c-0.6,1.2-1.1,2-1.5,2.9c0,0.1,0.1,0.1,0.1,0.2c1.1-0.8,2.3-1.7,3.4-2.5 c0.1,0.1,0.2,0.1,0.2,0.2c-0.6,1.2-1.2,2.4-1.7,3.6c0.1,0.1,0.2,0.1,0.2,0.2c0.9-0.9,1.8-1.7,2.9-2.8c0.1,0.3,0.1,0.6,0.2,1 c0.4-0.5,0.7-0.8,1.1-1.3c0,0.9,0,1.6,0,2.5C241.4,120.1,241.8,119.6,242.3,119z"/> <path d="M231.6,92.4c0,0.1-0.1,0.2-0.1,0.3c10.1,2,18,8.7,20.7,16.6c0.7,0.1,3.7-1.7,1.1-7.7c-1.8-4.2-11-10.9-20.2-12.7 c-0.1,0.1-0.1,0.2-0.2,0.4C232.5,90.3,232,91.3,231.6,92.4z"/> <path class="st4" d="M297,196.8c-1.3-10.7,0.5-21.3,3.9-31.5c2.1-6.3,3.7-12.6,5.7-19.5c-1.2,0.8-1.3,1.5-1.6,2.2 c-6.7,14.9-15.4,28.5-28.4,38.9c-9.1,7.3-17.9,8.2-26.4,2.4c-2.7-1.8-5.1-4-7.6-6c-1.5-1.1-2.7-2.7-5.2-3.3 c4.4,5.4,8.8,9.9,14.2,13.2c5.5,3.4,11.3,4,17.4,1.8c7.5-2.7,13.3-7.9,18.5-13.6c2.3-2.5,4.3-5.3,7-8.6c-1.7,5.7-2.3,10.6-2.5,15.6 c-0.5,12.2,2.5,23.4,10.6,32.9c10.1,11.8,23.8,15.5,38.5,16.6c9.2,0.7,18.2-1.5,27.3-2c7.8-0.4,14.7,1.5,19.6,8.2 c0.7,0.2,1.1-0.4,1.7-0.6c-0.8-1.8-2.1-3.1-3.6-4.3c-7.1-5.9-15.4-6.9-24-5.4c-11.5,2-22.8,2-34-1 C309.3,227.3,299.3,215.8,297,196.8z"/> <path class="st4" d="M254.7,141.8c-2,2.5,5.6,4.5,5.6,4.5S256.6,139.2,254.7,141.8z"/> <path class="st4" d="M323.5,65.4c0.7,5.7,0.8,11.4,0.6,17c-0.7,16.5-4.8,31.8-7.6,41c0.2-0.9,0.4-1.7,0.6-2.6 c3.4-15,2.1-30.8-4.4-44.5c-2-4.3-4.6-8.4-7.6-12.2c15.5,20.8,8.7,67.5,8.7,67.5c0-0.1,0.1-0.2,0.1-0.4c0,0.1,0,0.1-0.1,0.2 c-1.2,3.8,5-6.1,7-9.8c14.7-26.1,10.4-60-6.8-83.9c0-0.1-0.1-0.1-0.1-0.2c-0.3-0.4-0.6-0.8-0.9-1.2c0.2,0.3,0.4,0.7,0.7,1 c0.5,0.8,1,1.5,1.5,2.3C319.8,47.5,322.4,56.4,323.5,65.4z"/> <path class="st4" d="M373.4,250.9c8.2-2.2,16.2-5.3,23.8-9.3c-6,2.7-12.2,5-18.6,6.8c0.2-0.1,0.3-0.2,0.5-0.3 c-0.3,0.1-0.5,0.2-0.8,0.4c-35.4,9.9-75.4,4.8-105.4-16.9c-35.4-25.9-51.4-72.1-47.2-114.9c0.8-8.2,2.7-16.4,5.7-24.1 c0-0.1,0.1-0.2,0.1-0.3c0.4-1.1,0.9-2.1,1.3-3.2c0.1-0.1,0.1-0.2,0.2-0.4c3.5-7.6,8.1-14.6,14.1-20.6c7.6-7.2,16.4-15.7,27.5-16.1 c-7.4-0.5-14.3,3.8-20.1,8c-12.1,8.5-21.5,20.8-26.5,34.7c-11.9,34.4-5.6,76,13.1,106.8c26.1,44.6,80.9,61.9,129.1,50.1 c-22.6,8.1-47.6,9.1-70.6,3.2c-91.7-24-117.5-114.2-76-194c-46.2,79.3-18.2,173.9,75.3,196.6C323.7,263.3,350.3,261.3,373.4,250.9z"/> <path d="M456.8,334.5c-11.4-13.9-25-26.1-40-36.1c-14.9-10.1-30.7-18.5-46.8-26.3c23,13.5,46.3,27.1,65.9,45.3 c19.6,18,35,40.3,46.2,64.3c7.5,15.7,6.9,37.2-9.7,46.9C509.4,407,474.7,358.1,456.8,334.5z"/> <path class="st4" d="M270.6,142c-2.2-2.5-5.7,5-5.7,5S272.8,144.6,270.6,142z"/> <path d="M424.9,457.6c32.5-30.6,26.9-76.9,4.9-111.9c-25.9-39.4-67.8-65.7-110.4-84.2c44.9,23.7,95.6,55.4,116.7,103.4 c13.8,30.5,12.4,67-12.8,91.1c-14.6,13-33.7,32.2-14.1,50.2C390.9,487.7,410.3,470.2,424.9,457.6z"/> <path d="M269.6,269.2c-45.4-20.7-80-65.3-84.1-115.6c1.6,43.4,27.2,84.7,63.7,108c11.9,7.9,25.6,14.1,38.6,19.7 c26.4,11.4,52.6,23.1,77.7,37c24,13.8,51.6,30.6,57.6,59.8C416.6,325.1,312.9,290.6,269.6,269.2z"/> <path class="st4" d="M290.5,488.9c10.6-2.6,21-5.9,31.2-9.9c10.2-4.4,21-8.2,28.5-17.5c6-8.7,7.4-20.9,5.9-31.7 c0.4,10.5-1.5,21.9-7.7,30.2c-7.3,8-18.2,11.7-27.9,15.6c-10.2,3.7-20.5,6.9-30.9,9.8c-20.4,4.3-45.4,20.3-41.7,46.3 C247,506.3,270.6,493.1,290.5,488.9z"/> <path class="st4" d="M337.9,403c0-3.2-0.5-6.3-0.8-9.5c-0.6,25.2-13.1,48.5-33.4,63.4C324.1,447.5,338.1,425.5,337.9,403z"/> <path class="st4" d="M307.7,398.8c4.8,6.3,8.3,13.7,10.2,21.4c0.9,3.9,1.4,7.9,1.2,12.1c6-13.4-4.9-40-20.6-40.8 C302.5,392.7,305.2,395.7,307.7,398.8z"/> <path class="st1" d="M264.8,156.4c-1,0.7-1.9,0.7-2.9,0c-2.1-1.4-4.2-1.6-6.4-0.3c-2.6,1.7-5.7,4.6-9.4,4.6c3.6,6.6,9.2,11,16.1,11 c6.9,0,13.5-2.3,17.5-11c-0.5-0.3-2.1,0.2-2.7-0.2c-1.6-1.1-3.1-2.4-4.6-3.5C270,155.5,267.4,154.7,264.8,156.4z M278.6,161.6 c-7.1,5.5-23.7,4.4-31-0.1c5.1,1.5,10.4,1.5,15.6,1.8c3.9,0.1,7.8,0.1,11.7-0.5C276.1,162.6,277.3,162.2,278.6,161.6z"/> <path d="M263.1,163.3c-5.2-0.3-10.5-0.2-15.6-1.8c7.4,4.5,24,5.6,31,0.1c-1.3,0.5-2.5,1-3.8,1.1C270.9,163.4,267,163.4,263.1,163.3z "/> <path class="st0" d="M295.9,475.3c59.1-11,58.8-40.4,63-61.1c0.2,1.5,7.6,25-14,73.8c54.4-36.5,0.2-102.5,0-102.7 c0,0-3.8,68.6-50.3,75.4c-46.5,6.9-71.1,28.2-53,70.4C255.3,484.5,260.3,482,295.9,475.3z"/> <path class="st3" d="M390.7,508.5c-15.2,15.5-31.5,29-50.8,38.5c-11.8,5.7-23.5,9.1-36.6,12.5C339.5,567.8,379.1,543.1,390.7,508.5z "/> <path d="M308.2,568.1c4.4,0,8.9,0.4,13.3-0.1c31.2-2.6,59.9-23.2,74.1-51C375.4,545.6,343.5,565.7,308.2,568.1z"/> <path d="M426.7,501.8c1-22.2,8.9-23.3,19.2-32.8c1.4-1.3,2.9-2.5,4.3-3.9C436.2,470.7,422.1,485.8,426.7,501.8z"/> <path d="M376.1,506.6c21-26.1,21.7-59.8,8.8-89.7c10.6,30.4,9.5,61.9-11.3,87.6c-16.9,20.2-45.6,23.5-70.4,21.9 c-32.3-4.8-47.7,20-46.9,49.5c1.3-28.2,15.3-51.8,46.7-46.5C328.8,531.5,358.8,528.1,376.1,506.6z"/> <path class="st2" d="M263.8,237.8c18.1,12.2,30.1,15.6,56.9,17.5c0,0-52.3-8.8-77.6-43.3c-36.9-47.9-33.6-111.6-0.1-159.9 c0,0,12-18,12-18c-15.4,16.3-37.5,26.8-47.5,88.7C200.1,168.9,226.7,213.2,263.8,237.8z"/> <path class="st0" d="M298.7,333.8c7.6,1.7,15.9,2,23.7,2.3c14.8,0.7,29.5,3.2,43.6,8c10.6,3.6,21,8.3,30.2,14.7 c2.8,2.2,6.6,4.3,7.8,7.9c0.2-1-0.2-2-0.6-2.9c-3.2-6.2-8.6-10.9-14-15.2c-20.6-15.7-46.8-23.2-72.5-23.1 c-28.1,0.3-54.4-13.1-67.5-39.3C253.6,309.8,275.2,329,298.7,333.8z"/> <path class="st4" d="M232.7,386.3c-4.4-4.3-9.2-8.2-14.3-11.8c-1-0.7-1.9-1.3-2.9-2c-3-2.2-5.6-4-7.5-5.4 c-11.2-7.7-21.9-16.3-31-26.4c-0.8-1-1.7-1.9-2.5-2.9c-8.6-10.7-14.7-22.4-17.6-35.2c-5.4-29.5,7.3-61.3,24.5-85.6 c-3.2,4.6-6.1,9.4-8.3,14.6c-12.2,29.9-12.6,66.6,4.1,94.9c6.8,11.2,15.5,21.1,25.3,29.6c-12.9-14.1-24.9-29.9-30.2-48.5 c-8.3-30.6-5.5-65.1,10.7-92.8c-4.4,5.2-8.5,10.8-12.2,16.8c-0.5,0.4-0.8,1.1-1.1,1.6c-4.2,6.7-7.9,13.8-10.6,21.2 c-3.1,8.3-5,16.6-5.8,24.8c-2,16.6,0.4,33.3,9.3,48.5c11,17,27,30.8,44,41.7c10.6,7.4,43.1,27.3,40.2,41.4 C248.6,403.4,241.5,394.4,232.7,386.3z"/> <path class="st3" d="M185.7,344.1c-1.7-3.1-3.8-5.7-5.5-8.6c-12.6-19.5-18.3-42.1-17.9-65.3C151.2,296,162.2,329,185.7,344.1z"/> <path class="st4" d="M103.2,237c0-0.1,0-0.1-0.1-0.2c-28.2,62-20.5,131.9,48.4,161c12.1,5.1,25,8.6,37.9,11.1 c-10.8-2.9-23.7-7-33.8-11.6C86.6,367.8,79.2,301,103.2,237z"/> <path class="st2" d="M281.9,380.3c-16.2-9.7-33-17.9-48.2-27.7c-15.2-9.6-26.5-21.7-32.7-38.5c-13.5-33.4-13.4-71.5-6.7-106.9 c-25.9,48.6-22,129.2,34,155C245.5,370.7,263.5,376.1,281.9,380.3z"/> <path d="M198.3,86.8c-37.9,23.3-47.6,72.8-40.9,114c1.3,6,2.5,11.9,3.9,17.8c-0.6-6-1.5-12-2.2-18 C155.2,159.7,163.9,113.1,198.3,86.8z"/> <path d="M146.5,261.9c-12.6-10.3-20.4-25.2-28.6-39C121.6,238.7,130.9,255.6,146.5,261.9z"/> <path class="st2" d="M175.3,215.2c-13.1-43.5,5.5-86.1,26.1-124.1C167.9,120.1,146.9,176.4,175.3,215.2z"/> <path class="st4" d="M265,0.5c-48.6-5.1-97.3,27.3-116.7,71.2c6.3-10.3,13.3-20,21.5-28.6C194.6,18,229.2,0.3,265,0.5z"/> <path class="st4" d="M222,34.2c-39.9,17.8-102.4,80-97.5,126.7C124.1,115.9,185.1,55.5,222,34.2z"/> <path class="st4" d="M136,231.3c-12.4-16.6-11.9-38.2-11.5-58C119.1,192.4,119.4,217.8,136,231.3z"/> <path d="M124,267c-13.5-20.9-27.1-44.3-24.2-70.1c-4.3,13.4-2.1,27.3,3.4,40c0,0.1,0,0.1,0.1,0.2C108.2,248.3,115.8,258.7,124,267z"/> <path d="M139.1,82.5c-23.1,17.7-31.8,50.7-24.6,78.3C112.5,132.3,119.7,104,139.1,82.5z"/> <path class="st1" d="M237.8,408.9c1,1.3,1.9,2.8,1.9,4.5c0.4-1.7-0.2-3.5-0.9-5.1c-5.8-10.9-15.6-18.7-25.7-25.7 c-11.9-6.5-22.6-13-32.5-22.9c2.8,14.7,16.7,22.9,29.5,28C220.1,393.4,230.4,400,237.8,408.9z"/> <path class="st3" d="M393.3,387.7c-16.4-20.1-40.7-32.9-65.5-39.4c-2.9-0.7-5.7-1.4-9.2-1.8c-6-0.1-12-0.9-17.9-2.1 c-17.6-3.8-35-11.6-50-21.3c-4-2.3-7.9-4.8-10.9-9.1c-8.8-12.6-11.4-28.9-12.6-44.1c-3.5,16.3-3.7,34,4,49.4 c2.8,5.3,6.9,10.4,12.4,14c0,0-0.8-0.6-0.8-0.6c20.9,18.1,47,30.4,74.8,31.4c21,4,50,15.7,67.2,32c12,11.1,26.6,23.1,28.4,40.5 C417.5,418.2,403.9,401.2,393.3,387.7z"/> <path d="M364,388c13.2,7.6,24.4,18.8,34.2,30.3c4.5,6,10,12.3,10.6,20.1c-0.3-7.8-5.6-14.5-10-20.6c-14.1-18.7-32.9-33.1-54-43.2 c-20.8-11-45.5-8.9-67.1-17.3c-21.3-8.9-51.5-29.1-54.3-53.8c1,25.8,31.5,47.7,53.2,56.7c21.7,8.6,45.8,6.9,66.9,17.2 C350.5,380.7,357.3,384.2,364,388z"/> <path class="st2" d="M302.2,386.6c13,11.5,24.7,22.6,23,40.7C338.2,410.5,320.7,388.2,302.2,386.6z"/> <path d="M340.9,339.7c-11.2-1.6-22.5,0.2-33.6-1c-40.2-3.9-68.8-39-77-76.8c7.4,46.7,44.3,84.3,93.6,80.6c11.1-0.5,22,0.5,32.6,4.1 c32.1,10,57,37,66.6,69.1C414.4,377,380.8,344.8,340.9,339.7z"/> <path d="M251.8,267c4.9,27,24,41.7,48.8,50c7.7,3.1,16.1,4.1,24.1,5.1c16.1,1.7,31.8,5.2,46.9,10.8c7.6,2.5,14.4,6.6,20.5,11.7 c6.1,5.1,11.2,11.5,15.4,18.4c-6.2-15-19-27.8-34.8-33.2c-15.2-6-31.5-9.4-47.7-10.9c-8.1-0.9-16-1.8-23.5-4.6 C277,306.8,258.2,293,251.8,267z"/> <path d="M204.4,303.7c6.7,21,22.2,37.4,39.7,50.2c5.7,4.3,11.9,8.3,18.7,10.5c-6.6-2.9-12.2-7.3-17.5-11.9 c-16.2-13.5-31.1-29.3-37.6-49.9c-9.3-26.8-8.8-56.3-3.7-83.9C196.2,246.1,195.3,276.3,204.4,303.7z"/> <path class="st0" d="M409.2,465.1c4.3-5.2,9-9.1,14.6-13.1c9.9-7.5,13.2-21.5,10.7-32.6c-0.8,11.3-4.7,22.1-14,28.1 c-6,3.3-12.2,7.8-16.7,13.2c-13.1,14-15.7,40.1,1.1,52C394.3,497.4,397.9,478.4,409.2,465.1z"/> <path class="st1" d="M108.7,249.1C80.9,296,96.6,356.6,143,385.1c14.4,9.2,30.2,15.6,46.6,18.7c-14.3-8.6-28-17.3-40.1-27.6 C109.9,344.4,98.5,297.7,108.7,249.1z"/> <path class="st1" d="M171.4,345.8c-9.4-10.3-18.1-21.8-22.3-35.3c-5.7-18.1-3.3-37.4,3.9-55c-23.9,30.6-14.4,70.8,16.1,92.9 c4.1,2.7,8.3,5.3,12.6,7.6C178.4,352.4,174.8,349.2,171.4,345.8z"/> <path class="st2" d="M330.9,310.8c-5.2-1.3-12.3-2.6-17.4-3.9c-16.7-4.1-32.8-11.3-44.2-24.8C276.4,307.1,307.8,316.7,330.9,310.8z"/> <path class="st3" d="M123.5,267.4c-16.7,46.7,19.9,93.2,57.8,116.9c5.8,3.3,11.5,6.6,17.3,9.6c-5-4.3-10.2-8.3-15.3-12.4 C149.7,353.6,116.6,314.1,123.5,267.4z"/> <path d="M151.9,369.1c1.8,1.2,3.6,2.4,5.4,3.6c-6.5-5.8-12.9-11.5-18-18.3c-16.1-20-23.9-45.9-23.9-71.4 C110.4,315.4,124.7,350.6,151.9,369.1z"/> <path d="M132.2,282.2c-3.5,30.2,12.1,61.9,38.2,77.5c1.7,1.1,3.4,2.1,5.2,3.1C149.9,343.9,133.5,314.1,132.2,282.2z"/> <path d="M239.3,459c23.6,1.7,48.6,2,62.3-21.1c11.5-16.1-4.8-34-19-41c-5.7-3.2-12.5-3.6-18.3-6.8c-5.6-3-10.2-7.9-12.9-13.9 c2,6.2,6.6,11.6,12.2,15.1c5.5,3.7,12.3,4.2,17.9,7.7c10.8,6.5,24.8,19.4,19.4,33C288.2,457.9,264.3,457.7,239.3,459z"/> <path class="st3" d="M289,430.7c10.2-26.3-13.6-29.3-31.1-37.8c-11.7-6.5-22.3-15.9-32.2-25.2c7.5,11.9,17.1,23.1,29.3,30.5 c12.7,7.8,36.6,9.6,27.5,29.7c-10.1,20.3-41.8,21.7-62.3,23.6C243.1,455.2,277.2,454.7,289,430.7z"/> </svg>